<?xml version="1.0" standalone="no"?><!DOCTYPE svg PUBLIC "-//W3C//DTD SVG 1.1//EN" "http://www.w3.org/Graphics/SVG/1.1/DTD/svg11.dtd"><svg t="1498120457291" class="icon" style="" viewBox="0 0 1025 1024" version="1.1" xmlns="http://www.w3.org/2000/svg" p-id="1030" xmlns:xlink="http://www.w3.org/1999/xlink" width="200.1953125" height="200"><defs><style type="text/css"></style></defs><path d="M512 95.999c-265.101 0-480 214.899-480 480s214.899 480 480 480c265.101 0 480-214.899 480-480 0.134-265.101-214.765-480-480-480v0 0zM222.201 895.731c45.1-116.51 157.315-199.732 289.799-199.732s244.698 83.087 289.933 199.597c-76.778 69.665-178.255 112.349-289.933 112.349-111.678 0.134-213.155-42.684-289.799-112.215v0 0zM367.973 504.052c0-79.597 64.43-144.027 144.027-144.027s144.027 64.43 144.027 144.027c0 79.597-64.43 144.027-144.027 144.027s-144.027-64.564-144.027-144.027v0 0zM838.174 858.817c-42.416-92.618-122.014-164.295-220.537-194.631 51.946-34.228 86.443-93.155 86.443-160.134 0-106.041-86.040-192.081-192.081-192.081-106.041 0-192.081 86.040-192.081 192.081 0 66.98 34.362 125.906 86.443 160.268-98.524 30.336-178.121 102.013-220.537 194.631-65.906-75.839-105.906-174.497-105.906-282.818 0-238.657 193.423-432.081 432.081-432.081 238.658 0 432.081 193.423 432.081 432.081 0 108.188-40.134 206.845-105.906 282.684v0 0zM838.174 858.817z" p-id="1031" fill="#ffffff"></path></svg>